<svg width="216" height="496" viewBox="0 0 216 496" fill="none" xmlns="http://www.w3.org/2000/svg">
<symbol id="black-line">
<path d="M217 468.552L216.698 468.846L216.398 469.139L216.399 469.14C203.211 482.039 189.641 491.187 176.245 493.468L175.608 493.571C161.993 495.667 148.982 490.56 137.236 476.15L136.678 475.456C115.001 448.22 123.778 420.238 134.646 391.962L135.9 388.719C136.32 387.637 136.742 386.553 137.164 385.47L139.096 380.497C148.556 356.019 157.068 331.093 148.935 304.691L148.507 303.347C139.737 276.687 124.361 260.553 107.78 244.568V244.567L103.698 240.65C88.5707 226.163 72.8099 211.079 61.0197 187.862L60.462 186.751C54.5534 174.857 47.1782 162.88 39.6447 150.932L36.4103 145.814L35.7745 144.81C27.2382 131.316 18.7799 117.875 12.462 104.833L11.8575 103.572C5.48534 90.1463 1.35793 76.9488 1.93274 64.3625L2.0011 63.175C2.85342 50.9315 8.24263 39.472 20.0216 29.1222L21.5802 27.7707C37.7249 13.9383 55.2883 4.38196 73.963 2.37418L74.8702 2.28336C93.9426 0.486606 113.874 6.61635 134.278 23.5431L135.193 24.3136C154.165 40.5962 159.615 62.6744 164.9 83.9679L166.156 89.0021C166.578 90.674 167.006 92.3393 167.445 93.9953L168.07 96.3097C171.238 107.849 175.12 118.848 181.832 128.532L182.51 129.492C189.615 139.369 199.866 147.918 215.727 154.106H215.726L216.362 154.353L217 154.601V468.552Z" stroke="black" stroke-width="2"/>
</symbol>
</svg>
