<svg width="153" height="542" viewBox="0 0 153 542" fill="none" xmlns="http://www.w3.org/2000/svg">
<symbol id="gray-line">
<path d="M153.547 539.584L152.701 539.716L151.854 539.847C137.947 542.011 124.666 538.647 113.122 527.52L112.574 526.985C99.9346 514.473 97.351 499.784 99.8025 484.36L100.045 482.924C102.694 468.062 109.865 452.389 117.083 437.078L118.398 434.291L121.033 428.698C127.125 415.699 132.713 403.069 135.313 391.238L135.594 389.906C138.315 376.405 136.908 364.3 127.824 354.079L127.371 353.578C117.435 342.766 108.673 336.321 100.724 332.335L99.9578 331.957C92.3218 328.253 85.3425 326.745 78.6013 325.809L77.2556 325.629C75.4232 325.391 73.6058 325.19 71.7888 324.989H71.7878C59.5594 323.634 47.5848 322.317 34.4294 310.382L33.8025 309.805C17.4617 294.602 11.1141 275.767 9.99097 255.514L9.94116 254.549C8.97104 234.004 13.2695 211.906 17.9207 190.493L19.5808 182.913V182.912L21.1199 175.89C24.6633 159.599 27.7733 143.992 28.3171 129.861L28.3708 128.157C28.7803 110.922 25.155 96.3581 13.825 85.7272L13.2615 85.2077C6.75783 79.3115 3.22144 72.572 2.19312 65.4977L2.10132 64.8122C1.21025 57.5201 2.9715 50.0633 6.57593 43.0114L6.9187 42.3532C14.2253 28.5469 28.7084 16.0406 45.3679 8.7038L46.1638 8.35809C62.9096 1.17887 82.0865 -0.896754 98.6892 6.49481H98.6902L99.4822 6.85614C116.073 14.5844 129.521 31.718 135.248 61.6725L137.663 74.3366L139.824 85.6647C144.574 110.506 148.618 131.047 152.998 148.732L153.486 150.686L153.487 150.689L153.517 150.81L153.547 150.929V539.584Z" stroke="black" stroke-width="2"/>
</symbol>
</svg>
