<svg width="317" height="1109" viewBox="0 0 317 1109" fill="none" xmlns="http://www.w3.org/2000/svg">
<symbol id="blue-line">
<path d="M2.02734 4.37497C32.7883 -2.14903 62.1616 4.09874 87.4619 29.1445L88.6396 30.3291C113.075 55.2635 118.082 84.3586 113.185 115.169C108.232 146.332 93.1214 179.434 77.7383 212.064L77.7393 212.065L75.0098 217.847C60.6985 248.145 46.6363 277.928 40.3018 305.686L40.0059 307.007C33.4564 336.802 36.0642 363.872 56.8896 386.532L58.8779 388.676C79.3474 410.538 97.4815 423.545 114.034 431.573L115.631 432.335C132.084 440.047 147.084 442.953 161.486 444.813L164.337 445.171C167.18 445.516 170.004 445.829 172.815 446.141L177.595 446.676C201.435 449.401 224.489 453.252 249.888 476.882L251.452 478.357C283.994 509.463 296.442 547.878 298.399 589.333L298.485 591.307C300.058 631.469 291.979 674.53 282.894 716.684L281.997 720.827C281.43 723.439 280.859 726.046 280.288 728.649L278.575 736.444C270.181 774.602 262.066 811.503 260.584 844.606L260.519 846.181C259.058 884.128 266.533 916.566 292.251 939.882L292.879 940.457C305.965 952.553 312.824 966.288 314.574 980.609L314.653 981.291C316.188 995.138 312.956 1009.36 306.238 1022.99L305.566 1024.32C291.239 1052.36 262.104 1078.05 228.251 1093.35L226.636 1094.07C192.629 1109.04 153.73 1113.65 120.039 1099.32L118.438 1098.63C84.5615 1083.55 56.6432 1049.22 44.582 987.88L44.2998 986.426C38.3227 955.167 31.1616 930.467 24.3047 908.055L21.3887 898.576C19.7751 893.345 18.1903 888.209 16.6562 883.111L15.1396 878.023C5.98363 846.984 -1.00003 816.733 -1 774.17V5.04684L-0.219727 4.87106L0.561523 4.69528L2.02734 4.37497Z" stroke="black" stroke-width="2"/>
</symbol>
</svg>
